<svg width="128" height="128" viewBox="0 0 128 128" xmlns="http://www.w3.org/2000/svg">
  <rect width="128" height="128" rx="28" fill="#5865F2"/>
  <path fill="#fff" d="M89.4 36.9c-5.6-2.6-11.6-4.4-17.9-5.5l-.8 1.6c5.9 1 11.2 2.6 16.1 5-6-3-12.7-5-19.8-6-1.5-.2-2.9-.3-4.4-.4-.5 0-1 0-1.5 0s-1 0-1.5 0c-1.5 0-2.9.2-4.4.4-7.1 1-13.8 3-19.8 6 4.9-2.4 10.2-4 16.1-5l-.8-1.6C44.2 32.5 38.2 34.3 32.6 36.9 22 53 19 68.7 20.5 84.3c8.1 6 16 9.6 23.7 12 1.5-2.1 2.9-4.3 4.1-6.6-2.4-.9-4.6-2-6.8-3.3.6-.4 1.1-.9 1.7-1.3 13.5 6.3 28 6.3 41.4 0 .6.4 1.1.9 1.7 1.3-2.1 1.3-4.4 2.4-6.8 3.3 1.2 2.3 2.6 4.5 4.1 6.6 7.7-2.4 15.6-6 23.7-12 1.7-18.1-2.9-33.7-12.9-47.4ZM52.3 74.8c-4.4 0-8-4.1-8-9.1s3.5-9.1 8-9.1c4.4 0 8 4.1 8 9.1s-3.6 9.1-8 9.1Zm23.5 0c-4.4 0-8-4.1-8-9.1s3.5-9.1 8-9.1c4.4 0 8 4.1 8 9.1s-3.5 9.1-8 9.1Z"/>
</svg>
