<svg width="128" height="128" viewBox="0 0 128 128" xmlns="http://www.w3.org/2000/svg">
  <rect width="128" height="128" rx="28" fill="#07C160"/>
  <path d="M42 33c-16.569 0-30 11.64-30 26 0 8.084 4.283 15.306 11.008 20.073L18 95l20.832-8.102A37.33 37.33 0 0 0 42 87c16.569 0 30-11.64 30-26S58.569 33 42 33Z" fill="#fff"/>
  <path d="M85 48c-13.807 0-25 9.402-25 21 0 11.598 11.193 21 25 21 2.545 0 5-.319 7.29-.91L109 95l-4.772-12.27C109.078 79.05 112 74.232 112 69c0-11.598-12.193-21-27-21Z" fill="#fff" opacity=".95"/>
  <circle cx="33" cy="56" r="4.5" fill="#07C160"/>
  <circle cx="50" cy="56" r="4.5" fill="#07C160"/>
  <circle cx="77" cy="66" r="4" fill="#07C160"/>
  <circle cx="92" cy="66" r="4" fill="#07C160"/>
</svg>
